<?xml version="1.0" encoding="utf-8"?>
<!-- Generator: Adobe Illustrator 22.1.0, SVG Export Plug-In . SVG Version: 6.00 Build 0)  -->
<svg version="1.1" id="Layer_1" xmlns="http://www.w3.org/2000/svg" xmlns:xlink="http://www.w3.org/1999/xlink" x="0px" y="0px"
	 viewBox="0 0 500 500" style="enable-background:new 0 0 500 500;" xml:space="preserve">
<style type="text/css">
	.st0{fill:#D8B09A;}
	.st1{fill:#F7B5C2;}
	.st2{fill:#62C4DC;}
	.st3{fill:#FFFFFF;}
</style>
<g>
	<g>
		<path class="st0" d="M446.4,245.6c2.8,1.8-17.8,54.3-60.1,96.7c-29.4,29.5-78.9,63.7-94.6,51.4c-6-4.7-6.4-15.8-4-23.4
			c7.8-24.4,44.2-13.3,84.3-43.6c15.4-11.7,30.1-29.1,59.4-64.1C441.9,250,445.4,245.1,446.4,245.6z"/>
		<path class="st1" d="M437.2,265.1c6.7,3.3,15.4-2.2,18.5-4.1c15.8-9.9,28.6-32.7,27.5-47.6c-0.2-2-0.9-8,2.5-13.2
			c2.5-3.9,5.9-5.3,5.7-5.6c-0.4-0.7-19.4,4.6-35.6,19.5c-15.8,14.5-28.7,37.8-22.5,47.4C434.7,263.9,437.2,265.1,437.2,265.1z"/>
	</g>
	<g>
		<path class="st2" d="M373.3,225.5c29.5-23.1,35-90.2,8.2-110.2c-27-20.2-91.5,4-103.4,40.7c-11.8-3.5-27.2-6.8-45.3-7.3
			c-4.2-0.1-24.2-0.4-49,5.5c-13.3-35.6-76.2-58.7-102.7-38.9c-25.6,19.1-21.7,81.1,4.4,106.8c-7,11.3-15,28.1-17.3,49.8
			c-0.5,4.5-4.8,50.3,24.6,87.1c36,45,97,45,138.6,44.9c44-0.1,96.7-0.3,130.8-40.5c22.1-26.2,33.9-66.4,25.2-104
			C383.8,244.4,377.8,232.9,373.3,225.5z"/>
		<polygon class="st3" points="121.6,254.1 157,290.8 120.4,326.2 127.2,333.3 163.8,297.8 170.9,291 164.1,283.9 128.6,247.3 		"/>
		<rect x="192.4" y="320.7" class="st3" width="77.8" height="12.6"/>
	</g>
</g>
</svg>
