<?xml version="1.0" encoding="utf-8"?>
<!-- Generator: Adobe Illustrator 22.1.0, SVG Export Plug-In . SVG Version: 6.00 Build 0)  -->
<svg version="1.1" id="Layer_1" xmlns="http://www.w3.org/2000/svg" xmlns:xlink="http://www.w3.org/1999/xlink" x="0px" y="0px"
	 viewBox="0 0 500 500" style="enable-background:new 0 0 500 500;" xml:space="preserve">
<style type="text/css">
	.st0{fill:#ABDAC7;}
	.st1{fill:#FFFFFF;}
	.st2{fill:#62C4DC;}
</style>
<g>
	<path class="st0" d="M406.3,183.4c32.5-25.5,38.6-99.4,9.1-121.4c-29.7-22.2-100.8,4.4-113.8,44.8c-13-3.9-30-7.4-49.9-8
		c-4.6-0.1-26.6-0.4-54,6C183,65.6,113.7,40.2,84.5,62c-28.2,21-23.9,89.3,4.8,117.6c-7.7,12.5-16.5,31-19.1,54.8
		c-0.5,4.9-5.3,55.4,27,95.9c39.6,49.6,106.9,49.6,152.7,49.4c48.4-0.1,106.5-0.3,144-44.6c24.4-28.8,37.3-73.1,27.7-114.6
		C417.9,204.2,411.3,191.6,406.3,183.4z"/>
	<polygon class="st1" points="129,214.9 168.1,255.3 127.7,294.4 135.3,302.1 175.6,263.1 183.4,255.5 175.9,247.8 136.8,207.4 	"/>
	<rect x="207.1" y="288.3" class="st1" width="85.7" height="13.8"/>
	<g>
		<path class="st2" d="M377.7,119.5c4.8,0,9.6,0,14.4,0c0,0.3,0.1,0.5,0.2,0.7c2.2,5.2,4.4,10.4,6.6,15.6c0.2,0.4,0.4,0.7,0.9,0.9
			c0.9,0.3,1.8,0.7,2.7,1.1c0.4,0.2,0.8,0.2,1.3,0c5.1-2.1,10.3-4.2,15.5-6.4c0.7-0.3,1.1-0.2,1.6,0.3c2.9,3,5.8,5.9,8.8,8.8
			c0.5,0.5,0.5,0.9,0.3,1.5c-2.1,5.2-4.2,10.4-6.3,15.6c-0.2,0.5-0.2,0.9,0,1.4c0.4,0.9,0.7,1.7,1.1,2.6c0.2,0.4,0.4,0.7,0.8,0.9
			c1.3,0.5,2.6,1.1,3.8,1.6c4.2,1.7,8.4,3.5,12.6,5.2c0,4.8,0,9.6,0,14.4c-0.3,0-0.5,0.1-0.7,0.2c-5.3,2.2-10.5,4.5-15.8,6.7
			c-0.4,0.2-0.6,0.4-0.8,0.8c-0.3,0.9-0.6,1.8-1,2.6c-0.2,0.5-0.2,0.9,0,1.4c2.2,5.2,4.3,10.4,6.4,15.5c0.2,0.6,0.2,1-0.3,1.4
			c-3,2.9-5.9,5.9-8.9,8.9c-0.5,0.5-0.8,0.5-1.4,0.3c-5.1-2.1-10.2-4.1-15.3-6.2c-0.7-0.3-1.3-0.4-2,0c-0.7,0.4-1.5,0.7-2.3,0.9
			c-0.5,0.2-0.8,0.5-1,1c-0.7,1.7-1.4,3.3-2.1,5c-1.6,3.8-3.1,7.5-4.6,11.3c-4.8,0-9.6,0-14.4,0c0-0.2-0.1-0.4-0.1-0.6
			c-2.3-5.3-4.5-10.6-6.8-15.9c-0.1-0.4-0.4-0.5-0.7-0.7c-1-0.4-2.1-0.8-3.1-1.2c-0.4-0.2-0.7-0.1-1.1,0c-5.2,2.1-10.3,4.3-15.5,6.4
			c-0.6,0.2-0.9,0.1-1.3-0.3c-2.9-3-5.9-5.9-8.9-8.9c-0.5-0.5-0.6-0.8-0.3-1.5c2.1-5.1,4.1-10.2,6.2-15.3c0.2-0.5,0.2-1,0-1.5
			c-0.4-0.9-0.8-1.9-1.2-2.9c-0.2-0.4-0.4-0.7-0.8-0.9c-1.8-0.7-3.7-1.5-5.5-2.3c-3.6-1.5-7.1-2.9-10.7-4.4c0-4.8,0-9.6,0-14.4
			c0.3,0,0.5-0.1,0.8-0.2c5.1-2.2,10.2-4.3,15.2-6.5c0.5-0.2,0.9-0.5,1.1-1.1c0.3-0.9,0.7-1.9,1.1-2.8c0.2-0.5,0.2-1,0-1.5
			c-2.1-5.1-4.2-10.2-6.3-15.3c-0.2-0.6-0.2-0.9,0.3-1.4c3-2.9,5.9-5.9,8.8-8.8c0.6-0.6,1-0.6,1.7-0.3c5.1,2.1,10.2,4.1,15.4,6.2
			c0.4,0.2,0.8,0.2,1.3,0c1-0.4,2-0.8,3-1.2c0.4-0.2,0.7-0.4,0.8-0.8c0.5-1.2,1-2.4,1.5-3.6C374.2,128,376,123.7,377.7,119.5z
			 M384.8,201.5c13.5,0.1,24.9-10.8,25-24.8c0.1-13.7-11-24.9-24.7-24.9c-13.8-0.1-25,11-25,24.7C360,190.6,371.5,201.5,384.8,201.5
			z"/>
	</g>
</g>
</svg>
