<?xml version="1.0" encoding="utf-8"?>
<!-- Generator: Adobe Illustrator 22.1.0, SVG Export Plug-In . SVG Version: 6.00 Build 0)  -->
<svg version="1.1" id="Layer_1" xmlns="http://www.w3.org/2000/svg" xmlns:xlink="http://www.w3.org/1999/xlink" x="0px" y="0px"
	 viewBox="0 0 319 460" style="enable-background:new 0 0 319 460;" xml:space="preserve">
<style type="text/css">
	.st0{fill:#EF9AB2;}
	.st1{fill:url(#SVGID_1_);}
</style>
<g>
	<g>
		<path class="st0" d="M201.6,425.8c0.2,1,8.1,0.3,12.4,0c2.8-0.2,5.8-0.6,9.8-1.1c7.2-1,8.9-1.7,15.1-1.4c9.4,0.4,16.3,2.4,17.4,0
			c0.6-1.4-1.2-3.8-2.5-5c-3-2.6-7-2.5-7.5-2.5c-15.6-0.1-39.9-77.1-39.9-77.1c-16.2-51.3-46.6-123-50-139.2
			c-0.7-3.3-1.7-6.6-2.5-9.9c-1.9-8.3-2.2-10.9-4.2-12c-2.9-1.5-7.3,1.1-10.1,3.2c0.8,1.9,3.9,9,4.7,10.9
			c26.2,60.8,44.3,124.9,69.6,186.1c0.1,0.2,0.4,0.9,0.7,2c1.1,3.1,1.6,5.5,1.8,6.2c2.6,11.3,8.7,22.4,5,29.8
			C217.2,424.5,201.3,424.3,201.6,425.8z"/>
	</g>
	<g>
		<linearGradient id="SVGID_1_" gradientUnits="userSpaceOnUse" x1="27.2562" y1="212.3245" x2="300.7717" y2="212.3245">
			<stop  offset="0" style="stop-color:#8CCFEA"/>
			<stop  offset="1" style="stop-color:#D5EDF6"/>
		</linearGradient>
		<path class="st1" d="M288,259.9c-12.8,16.8-36,18-61.1,21.2c-34.6,4.4-64.6,8.2-93.4,20.8c-14.4,6.3-47.2,20-68.2,52.4
			c-1.7,2.6-3.3,5.4-4.8,8.1c11.8-30.4,33.2-67.4,68.2-92.3c2.7-1.9,7.8-5.4,14.5-9.1c18.3-9.8,25.5-10.1,42-17.8
			c18.6-8.7,31-19,33.9-21.4c12.2-10.4,20.6-21.1,26-28.8c-5,4.4-11.3,9.3-18.9,13.8c-11.8,6.9-22.6,10.6-30.8,12.5
			c12.7-5.7,50.8-24.7,71.6-68.7c6.7-14.1,10-27.4,11.7-38.2c-5.1,7.8-12.7,17.9-23.4,27.8c-11.5,10.7-22.6,17.5-30.9,21.7
			c15.9-11.7,26.9-23.7,33.7-32c8.1-9.9,45-51.8,42.6-104.7C300,11.2,295.7,5,295.7,5s0.6,3.1,0.9,8.1c0,0,0.6,9.7-1.3,19.5
			c-6.2,32.1-78.9,77.2-78.9,77.2c-38.1,23.7-78.5,48.8-108.1,87.2c-16,20.8-45.6,74.6-56,134.2c-10.9,62.2-17.9,81.5-22.4,84.6
			c-0.6,0.4-2.7,1.6-2.5,2.5c0.5,1.9,11.8,2.4,14.9-2.5c0.9-1.5,0.5-2.4,2.5-7.5c0.2-0.5,0.7-2,1.6-3.8c1.3-2.3,2.5-4.7,3.8-7
			c17-27.5,53.2-44.3,74.5-47.6c5.7-0.9,11-1.2,11-1.2c13.3-0.5,17.5,1.4,29.2,1.6c13.2,0.2,23.2-2.2,25.6-2.8
			c10-2.5,17.9-6.3,23.1-9.3c-4.1,1.1-9.1,2.2-14.8,2.6c-8.7,0.7-16-0.3-21.3-1.5c8.9,0.3,36.3,0.1,60.8-19.4
			c7.8-6.2,13.5-13,17.6-18.8c-5.2,3.1-12.4,6.7-21.4,9.4c-9.7,2.9-18,3.7-24,3.8c12.5-2.3,22.2-6.1,28.5-8.9
			c7.5-3.4,40.7-17.2,54.3-48.4c3.6-8.3,2.9-13.1,2.9-13.1S294,251.9,288,259.9z"/>
	</g>
</g>
</svg>
