<?xml version="1.0" encoding="utf-8"?>
<!-- Generator: Adobe Illustrator 22.1.0, SVG Export Plug-In . SVG Version: 6.00 Build 0)  -->
<svg version="1.1" id="Layer_1" xmlns="http://www.w3.org/2000/svg" xmlns:xlink="http://www.w3.org/1999/xlink" x="0px" y="0px"
	 viewBox="0 0 500 500" style="enable-background:new 0 0 500 500;" xml:space="preserve">
<style type="text/css">
	.st0{fill:#93CEB5;}
	.st1{fill:#ABDAC7;}
	.st2{fill:#D8B09A;}
	.st3{fill:#AF744B;}
	.st4{fill:#F7B5C2;}
	.st5{fill:#FFFFFF;}
</style>
<g>
	<g>
		<g>
			<path class="st0" d="M282.1,72.5c-11.5-5-28.7-3-28.7-3s5.2,16.9,12.1,25c3.4,3.7,8.5,5.3,13.4,4.1L282.1,72.5z"/>
			<path class="st1" d="M330.1,112.2c-10.7,14.1-32,12.8-44,0.4c-12-12.4-13-33.9,0.4-45.3C308.6,48.7,355,54.7,355,54.7
				S344.3,93.6,330.1,112.2z"/>
			<path class="st0" d="M261.9,150.3c-0.1,0-0.2,0-0.4,0c-1.8-0.2-3.1-1.8-2.9-3.6c4.3-40.3,46.9-59,48.7-59.8
				c1.7-0.7,3.6,0.1,4.3,1.7c0.7,1.7-0.1,3.6-1.7,4.3c-0.4,0.2-40.9,17.9-44.7,54.4C265,149,263.6,150.3,261.9,150.3z"/>
			<path class="st2" d="M192.6,189.3c-0.8-15.8,6.5-29.3,17.8-33.9c6.2-2.5,12.2-1.8,15.9-0.9c6.1-8.5,17.8-10.8,26.7-5.2
				c1.7-4.5,6.4-7.1,11.1-6.2c4.7,0.9,8.1,5,8.1,9.8c0,0.2,0,0.3-0.1,0.5c10.9-2.2,22,3.1,27.1,13c3.9-0.8,8,0.1,11.1,2.7
				c3.1,2.5,4.9,6.3,4.9,10.3c0,0.1,0,0.1,0,0.2c5.7,0.8,9.9,5.7,9.9,11.4l0,0c-3.1,9.2-10.8,16.1-20.3,18.2
				c-4.7,2.3-11.2,4.9-19.1,6.5c-7.6,1.6-14.3,1.9-19.4,1.7c-1.4,0.3-3.1,0.6-5.1,0.6c-1.7,0-3.5-0.1-5.2-0.4
				c-2.6,0.9-9.1,2.6-16.6,0.3c-3.7-1.2-6.5-3-8.3-4.4c-1.3,0.6-12.4,5.7-23.8,0C198.5,208.9,192.8,199.6,192.6,189.3z"/>
			<g>
				<path class="st3" d="M236,169.3c-1,0-1.9-0.4-2.6-1.2c-0.6-0.8-0.9-1.8-0.7-2.8c1.1-5.4,5.8-9.3,11.3-9.3c2.5,0,4.9,0.8,6.9,2.3
					c1.5,1.1,1.7,3.2,0.6,4.6c-1.1,1.5-3.2,1.8-4.6,0.7c-0.9-0.6-1.9-1-3-1c-2.4,0-4.4,1.7-4.9,4C239,168.2,237.6,169.3,236,169.3z"
					/>
				<path class="st3" d="M285,176.4c-1.6,0-3-1.2-3.3-2.8c-0.1-1.1-0.6-2-1.4-2.8c-1.7-1.7-4.3-1.9-6.2-0.6c-1,0.7-2.2,0.7-3.3,0.2
					c-1.1-0.5-1.8-1.6-1.8-2.8c-0.1-1.2,0.5-2.3,1.5-3c3.3-2.2,7.5-2.5,11.1-0.9c3.6,1.6,6.2,5,6.7,8.9c0.3,1.8-1,3.5-2.8,3.7
					C285.3,176.4,285.2,176.4,285,176.4z"/>
			</g>
		</g>
		<g>
			<path class="st4" d="M395.1,257.4c30-23.5,35.5-91.6,8.4-111.9c-27.4-20.5-92.9,4.1-104.9,41.3c-12-3.6-27.6-6.9-46-7.4
				c-4.3-0.1-24.5-0.4-49.7,5.6c-13.5-36.2-77.3-59.6-104.3-39.5c-26,19.4-22.1,82.3,4.4,108.4c-7.1,11.5-15.2,28.5-17.6,50.5
				c-0.5,4.6-4.9,51.1,24.9,88.4c36.5,45.7,98.5,45.7,140.7,45.6c44.6-0.1,98.2-0.3,132.7-41.1c22.5-26.6,34.4-67.4,25.6-105.6
				C405.8,276.5,399.7,264.9,395.1,257.4z"/>
			<polygon class="st5" points="139.6,286.4 175.6,323.6 138.4,359.6 145.3,366.8 182.5,330.8 189.7,323.8 182.8,316.7 146.8,279.5 
							"/>
			<rect x="211.5" y="354" class="st5" width="79" height="12.7"/>
		</g>
	</g>
</g>
</svg>
