<?xml version="1.0" encoding="utf-8"?>
<!-- Generator: Adobe Illustrator 22.1.0, SVG Export Plug-In . SVG Version: 6.00 Build 0)  -->
<svg version="1.1" id="Layer_1" xmlns="http://www.w3.org/2000/svg" xmlns:xlink="http://www.w3.org/1999/xlink" x="0px" y="0px"
	 viewBox="0 0 100 100" style="enable-background:new 0 0 100 100;" xml:space="preserve">
<style type="text/css">
	.st0{fill:#F7B5C2;}
</style>
<g>
	<g>
		<path class="st0" d="M40.6,40.8h3.3l7.3,20.8l1.9,0.3v1.5h-7.9v-1.5l2.5-0.3l-1.4-4.5h-8.8L36,61.6l2.6,0.3v1.5h-7.1v-1.5l1.9-0.3
			L40.6,40.8z M42.5,45.6L41.8,43L41,45.7l-3,9.7h7.7L42.5,45.6z"/>
		<path class="st0" d="M55.9,61.3C54.6,59.7,54,57.6,54,55c0-1.7,0.3-3.3,1-4.6c0.7-1.3,1.6-2.3,2.8-3.1c1.2-0.7,2.6-1.1,4.1-1.1
			c1.9,0,3.3,0.5,4.3,1.6c1,1,1.6,2.5,1.6,4.4c0,1.2-0.1,2.2-0.2,2.8H57.3c0,2,0.5,3.6,1.4,4.8c0.9,1.2,2.1,1.8,3.8,1.8
			c0.8,0,1.6-0.1,2.5-0.4c0.9-0.3,1.6-0.6,2-1l0.6,1.3C67,62.1,66.1,62.6,65,63c-1.1,0.4-2.3,0.7-3.5,0.7
			C59,63.7,57.2,62.9,55.9,61.3z M64.5,53.4c0.1-0.4,0.1-0.9,0.1-1.3c0-1.3-0.3-2.3-0.8-3.1c-0.5-0.8-1.4-1.1-2.5-1.1
			c-1.2,0-2.1,0.4-2.8,1.3c-0.7,0.8-1.1,2.3-1.2,4.2H64.5z"/>
	</g>
	<path class="st0" d="M69.7,85.5H29.6c-9.3,0-16.9-7.6-16.9-16.9V36c0-9.3,7.6-16.9,16.9-16.9h40.1c9.3,0,16.9,7.6,16.9,16.9v32.6
		C86.7,77.9,79.1,85.5,69.7,85.5z M29.6,22.8c-7.3,0-13.2,5.9-13.2,13.2v32.6c0,7.3,5.9,13.2,13.2,13.2h40.1
		c7.3,0,13.2-5.9,13.2-13.2V36c0-7.3-5.9-13.2-13.2-13.2H29.6z"/>
</g>
</svg>
