<?xml version="1.0" encoding="utf-8"?>
<!-- Generator: Adobe Illustrator 22.1.0, SVG Export Plug-In . SVG Version: 6.00 Build 0)  -->
<svg version="1.1" id="Layer_1" xmlns="http://www.w3.org/2000/svg" xmlns:xlink="http://www.w3.org/1999/xlink" x="0px" y="0px"
	 viewBox="0 0 100 100" style="enable-background:new 0 0 100 100;" xml:space="preserve">
<style type="text/css">
	.st0{fill:#62C4DC;}
</style>
<g>
	<g>
		<path class="st0" d="M43.5,41.6h3.3l7.3,20.8l1.9,0.3v1.5h-7.9v-1.5l2.5-0.3L49.2,58h-8.8L39,62.4l2.6,0.3v1.5h-7.1v-1.5l1.9-0.3
			L43.5,41.6z M45.4,46.5l-0.8-2.6L44,46.5l-3,9.7h7.7L45.4,46.5z"/>
		<path class="st0" d="M59.3,49.8L57,49.3v-1.6l4.7-0.6h0.1l0.7,0.5v14.8l2.4,0.2v1.5h-8v-1.5l2.4-0.3V49.8z M59.1,43.9
			c-0.3-0.4-0.5-0.8-0.5-1.4c0-0.6,0.2-1.2,0.6-1.6c0.4-0.4,0.9-0.6,1.6-0.6s1.2,0.2,1.5,0.5c0.3,0.4,0.5,0.8,0.5,1.4
			c0,0.7-0.2,1.2-0.6,1.6s-0.9,0.6-1.6,0.6h0C59.9,44.5,59.4,44.3,59.1,43.9z"/>
	</g>
	<path class="st0" d="M69.7,85.5H29.6c-9.3,0-16.9-7.6-16.9-16.9V36c0-9.3,7.6-16.9,16.9-16.9h40.1C79,19,86.6,26.6,86.6,36v32.6
		C86.6,77.9,79,85.5,69.7,85.5z M29.6,22.8c-7.3,0-13.2,5.9-13.2,13.2v32.6c0,7.3,5.9,13.2,13.2,13.2h40.1c7.3,0,13.2-5.9,13.2-13.2
		V36c0-7.3-5.9-13.2-13.2-13.2H29.6z"/>
</g>
</svg>
