<?xml version="1.0" encoding="utf-8"?>
<!-- Generator: Adobe Illustrator 22.1.0, SVG Export Plug-In . SVG Version: 6.00 Build 0)  -->
<svg version="1.1" id="Layer_1" xmlns="http://www.w3.org/2000/svg" xmlns:xlink="http://www.w3.org/1999/xlink" x="0px" y="0px"
	 viewBox="0 0 100 100" style="enable-background:new 0 0 100 100;" xml:space="preserve">
<style type="text/css">
	.st0{fill:#F7B5C2;}
</style>
<g>
	<g>
		<path class="st0" d="M37.5,65.2c-2.2-1.4-3.9-3.3-5.1-5.8c-1.2-2.5-1.7-5.4-1.7-8.8c0-3.2,0.7-6.1,2-8.6c1.4-2.5,3.2-4.4,5.6-5.8
			c2.4-1.4,5-2.1,8-2.1c2.2,0,4.9,0.3,8,1l1.4,0.3l-0.4,7.8h-2.9l-1.1-5.5c-0.4-0.3-1.1-0.6-2.1-0.9c-1-0.2-2.2-0.4-3.7-0.4
			c-1.9,0-3.5,0.5-4.9,1.6c-1.4,1.1-2.6,2.6-3.4,4.7c-0.8,2.1-1.2,4.5-1.2,7.4c0,2.7,0.4,5.2,1.1,7.4c0.7,2.2,1.8,4,3.3,5.3
			c1.5,1.3,3.3,2,5.5,2c1.5,0,2.7-0.1,3.5-0.4c0.8-0.3,1.5-0.6,2.1-1.1l1.8-4.3l2.7,0.3l-1,6.2c-0.6,0-1.5,0.2-2.7,0.6
			c-1,0.3-2,0.6-3,0.8c-1,0.2-2.2,0.3-3.6,0.3C42.5,67.3,39.8,66.6,37.5,65.2z"/>
	</g>
	<path class="st0" d="M51.6,90.5L17.2,70.6V30.9L51.6,11l34.4,19.9v39.7L51.6,90.5z M20.5,68.8l31.2,18l31.2-18v-36l-31.2-18
		l-31.2,18V68.8z"/>
	<path class="st0" d="M74.9,49.7v-3.2h-2.5v-2.5h-3.2v2.5h-4.3v-2.5h-3.2v2.5h-2.5v3.2h2.5V54h-2.5v3.2h2.5v2.5h3.2v-2.5h4.3v2.5
		h3.2v-2.5h2.5V54h-2.5v-4.3H74.9z M69.2,54h-4.3v-4.3h4.3V54z"/>
</g>
</svg>
