<?xml version="1.0" encoding="utf-8"?>
<!-- Generator: Adobe Illustrator 22.1.0, SVG Export Plug-In . SVG Version: 6.00 Build 0)  -->
<svg version="1.1" id="Layer_1" xmlns="http://www.w3.org/2000/svg" xmlns:xlink="http://www.w3.org/1999/xlink" x="0px" y="0px"
	 viewBox="0 0 100 100" style="enable-background:new 0 0 100 100;" xml:space="preserve">
<style type="text/css">
	.st0{fill:#F7B5C2;}
</style>
<g>
	<g>
		<path class="st0" d="M50.4,89.2L22.2,74.6L15.8,15h67.7l-6.4,59.6L50.4,89.2z M25.8,72.2l24.5,12.7l23.3-12.7l5.8-53.5H20
			L25.8,72.2z"/>
		<polygon class="st0" points="50,72.4 33.5,65.9 31.5,54.7 36.5,54.7 38,62.3 50,67 61.2,62.6 63.1,48.7 30.9,48.7 30.4,44.4 
			56.6,32.7 28.7,32.7 27.4,27.7 70.7,27.7 70.3,32.2 44.3,43.7 68.9,43.7 65.8,66.2 		"/>
	</g>
</g>
</svg>
