<?xml version="1.0" encoding="utf-8"?>
<!-- Generator: Adobe Illustrator 22.1.0, SVG Export Plug-In . SVG Version: 6.00 Build 0)  -->
<svg version="1.1" id="Layer_1" xmlns="http://www.w3.org/2000/svg" xmlns:xlink="http://www.w3.org/1999/xlink" x="0px" y="0px"
	 viewBox="0 0 100 100" style="enable-background:new 0 0 100 100;" xml:space="preserve">
<style type="text/css">
	.st0{fill:#62C4DC;}
</style>
<g>
	<path class="st0" d="M48.5,68.2c-2.7-0.6-4.2-2.6-5.3-4.8c-2.3-4.5-3.2-9.4-4.4-14.2c-0.5-1.9-1-3.8-1.6-6.1
		c-2.8,3.1-5.7,5.7-6.9,9.6c-0.9,2.9-1.8,5.8-2.7,8.7c-1.7,5-5.4,7.7-10.7,7.7c-2.4,0-4.7,0.1-7.1,0.2c-0.9,0-1.3-0.1-1-1.2
		c2.8-9.8,6.8-19,13.9-26.5c3-3.2,6.6-5,11.3-4.8c4.5,0.2,9,0.1,13.5,0c3.5,0,6.1,1.4,7.8,4.5c2.4,4.4,3.4,9.2,4.6,14
		c0.6,2.3,1.2,4.5,2.2,6.8c1.8-5.5,3.6-11.1,5.3-16.6c1-3.2,2.4-6,5.5-7.7c2.1-1.2,4.5-1.4,6.9-1.5c3.4-0.1,6.7,0,10.1-0.1
		c1.1,0,1.3,0.3,0.8,1.3c-5.1,8.7-9.6,17.8-15.9,25.7c-1.9,2.4-4,4.6-7.3,5c-0.3-0.1-0.6-0.3-0.8-0.3c-5.7,0-11.3,0-17,0
		C49,67.9,48.8,68.1,48.5,68.2z"/>
	<path class="st0" d="M48.5,68.2c0.3-0.1,0.6-0.3,0.9-0.3c5.7,0,11.3,0,17,0c0.3,0,0.6,0.2,0.8,0.3C60.9,68.4,54.7,68.4,48.5,68.2z"
		/>
</g>
</svg>
