<?xml version="1.0" encoding="utf-8"?>
<!-- Generator: Adobe Illustrator 22.1.0, SVG Export Plug-In . SVG Version: 6.00 Build 0)  -->
<svg version="1.1" id="Layer_1" xmlns="http://www.w3.org/2000/svg" xmlns:xlink="http://www.w3.org/1999/xlink" x="0px" y="0px"
	 viewBox="0 0 100 100" style="enable-background:new 0 0 100 100;" xml:space="preserve">
<style type="text/css">
	.st0{fill:#F7B5C2;}
</style>
<g>
	<g>
		<path class="st0" d="M45.5,51.3C28.1,54,20,73.4,30.4,87.7c-0.4-0.2-0.7-0.2-0.8-0.4c-10.2-7.2-15.8-16.9-15.7-29.4
			c0.1-11.5,5-20.5,15.3-26.2c3.3-1.8,6.6-3.5,9.8-5.3c3.6-2.1,6.3-5.1,7.2-9.3c0.5-2.4,0.5-4.9,0.7-7c4.7,4.5,9.7,9.3,14.7,14.1
			c-7-0.2-12.8,2.3-16.5,8.5C41.5,38.8,41.9,45,45.5,51.3z"/>
		<path class="st0" d="M62.8,91.8c10.5-9,11-24,2.3-33.5c9-3.6,13.1-10.2,12.1-20.1c0.6,0.7,1.1,1.2,1.6,1.8
			c3.7,4.4,6.8,9.1,8.1,14.9c1.6,7.3-0.1,14.1-3.8,20.4C78.6,82.9,72,88.3,63.7,91.6C63.4,91.7,63.1,91.7,62.8,91.8z"/>
		<path class="st0" d="M48.4,86.9c-7.3-0.1-13.1-5.9-13-13.1c0-7.2,5.9-13.1,13.1-13.1c7.3,0,13.1,5.9,13,13.4
			C61.4,81.3,55.6,87,48.4,86.9z"/>
		<path class="st0" d="M60,51.5c-5.6,0-10-4.4-10-9.9c0-5.5,4.5-10,10-10c5.6,0,10,4.4,10,9.9C70,47,65.6,51.5,60,51.5z"/>
	</g>
</g>
</svg>
