<?xml version="1.0" encoding="utf-8"?>
<!-- Generator: Adobe Illustrator 22.1.0, SVG Export Plug-In . SVG Version: 6.00 Build 0)  -->
<svg version="1.1" id="Layer_1" xmlns="http://www.w3.org/2000/svg" xmlns:xlink="http://www.w3.org/1999/xlink" x="0px" y="0px"
	 viewBox="0 0 100 100" style="enable-background:new 0 0 100 100;" xml:space="preserve">
<style type="text/css">
	.st0{fill:#62C4DC;}
</style>
<g>
	<g>
		<path class="st0" d="M39.1,53.2l-6.3-9.3l-2.2-0.4v-1.5h9v1.5l-2.9,0.4l4.7,7.6l4.7-7.6l-2.6-0.4v-1.5h7.4v1.5l-2.4,0.4l-6.1,8.7
			l6.7,10l2.3,0.3v1.5h-8.9v-1.5l2.8-0.3l-5.1-8.2l-4.9,8.2l3,0.3v1.5h-8v-1.5l2.6-0.3L39.1,53.2z"/>
		<path class="st0" d="M56,63.8c-1-0.6-1.8-1.5-2.4-2.8c-0.6-1.2-0.9-2.8-0.9-4.6c0-1.7,0.4-3.3,1.1-4.7c0.7-1.4,1.7-2.5,3-3.3
			c1.3-0.8,2.9-1.2,4.6-1.2c1,0,2,0.1,2.8,0.3V42l-3.1-0.4v-1.3l5.4-0.5h0.1l0.7,0.5v22.6h1.7v1.4c-0.6,0.1-1.2,0.3-1.7,0.3
			s-1,0.1-1.5,0.1s-0.9-0.1-1.1-0.3c-0.2-0.2-0.3-0.6-0.3-1.1v-1c-0.6,0.7-1.3,1.3-2.2,1.7c-0.9,0.5-1.9,0.7-3,0.7
			C58.1,64.7,57,64.4,56,63.8z M62.7,62.1c0.7-0.4,1.2-0.8,1.5-1.2v-11c-0.2-0.2-0.5-0.5-1.1-0.6c-0.6-0.2-1.2-0.3-1.9-0.3
			c-1.6,0-2.8,0.6-3.7,1.8c-0.9,1.2-1.4,3-1.4,5.5c0,2.2,0.4,3.8,1.2,4.8c0.8,1,1.9,1.6,3.2,1.6C61.3,62.6,62,62.4,62.7,62.1z"/>
	</g>
	<path class="st0" d="M69.7,85.5H29.6c-9.3,0-16.9-7.6-16.9-16.9V36c0-9.3,7.6-16.9,16.9-16.9h40.1c9.3,0,16.9,7.6,16.9,16.9v32.6
		C86.7,77.9,79.1,85.5,69.7,85.5z M29.6,22.8c-7.3,0-13.2,5.9-13.2,13.2v32.6c0,7.3,5.9,13.2,13.2,13.2h40.1
		c7.3,0,13.2-5.9,13.2-13.2V36c0-7.3-5.9-13.2-13.2-13.2H29.6z"/>
</g>
</svg>
