<?xml version="1.0" encoding="utf-8"?>
<!-- Generator: Adobe Illustrator 22.1.0, SVG Export Plug-In . SVG Version: 6.00 Build 0)  -->
<svg version="1.1" id="Layer_1" xmlns="http://www.w3.org/2000/svg" xmlns:xlink="http://www.w3.org/1999/xlink" x="0px" y="0px"
	 viewBox="0 0 100 100" style="enable-background:new 0 0 100 100;" xml:space="preserve">
<style type="text/css">
	.st0{fill:#F7B5C2;}
</style>
<g>
	<path class="st0" d="M40.5,79.9c0,2.4,0.1,4.7,0,7c0,1.4-1.2,2.1-2.6,1.6c-3.4-1.1-6.6-2.7-9.5-4.8c-7.2-5.2-12.1-12-14.4-20.6
		c-0.9-3.4-1.4-6.8-1.3-10.3c0.3-8.8,3.1-16.6,8.9-23.3c5.7-6.6,12.8-10.7,21.3-12.3c2.9-0.6,5.8-0.8,8.7-0.6
		c8.5,0.5,16.1,3.5,22.5,9.2C80,31,83.8,37.5,85.7,45.2c0.8,3.5,1.1,7.1,0.9,10.7c-0.6,8.3-3.6,15.6-9,21.9
		c-4.3,5-9.6,8.5-15.8,10.7c-1.4,0.5-2.5,0.1-2.8-1.1c-0.1-0.3-0.1-0.5-0.1-0.8c0-3.3,0-6.7,0-10c0-2.5-0.6-4.7-2.3-6.6
		c1.4-0.3,2.8-0.5,4.2-0.8c3.5-0.8,6.6-2.3,8.9-5.1c1.6-1.9,2.6-4.1,3.1-6.6c0.6-2.9,0.8-5.9,0.3-8.8c-0.4-2.5-1.5-4.6-3.1-6.5
		c-0.3-0.3-0.3-0.5-0.2-0.9c0.9-3,0.7-6-0.4-8.9c-0.1-0.2-0.4-0.4-0.6-0.4c-1.8-0.1-3.5,0.4-5,1.2c-1.5,0.7-2.8,1.6-4.3,2.4
		c-0.2,0.1-0.5,0.2-0.8,0.1c-3.9-1-7.9-1.4-11.9-1c-1.9,0.2-3.8,0.6-5.6,1c-0.4,0.1-0.8,0-1.1-0.2c-2.2-1.4-4.5-2.7-7.1-3.3
		c-0.7-0.1-1.4-0.1-2.1-0.2c-0.3,0-0.5,0.1-0.6,0.5c-1.1,3-1.3,6-0.4,9.1c0.1,0.2,0,0.5-0.1,0.6c-2.8,3.4-3.8,7.3-3.5,11.6
		c0.2,2.6,0.6,5,1.7,7.4c1.9,4.1,5.1,6.5,9.3,7.7c1.8,0.6,3.7,0.9,5.6,1.3c-0.1,0.2-0.4,0.4-0.6,0.7c-0.8,1.1-1.2,2.3-1.5,3.6
		c0,0.2-0.2,0.6-0.4,0.6c-2,0.8-4,1.2-6.1,0.6C32.3,74.9,31,73.6,30,72c-1-1.7-2.3-3.1-4.2-3.7C25.1,68,24.2,68,23.4,68
		c-0.3,0-0.7,0.3-0.9,0.5c-0.1,0.1,0.2,0.6,0.4,0.8c0.2,0.3,0.5,0.5,0.8,0.7c2.1,1.2,3.3,3.2,4.2,5.3c1.2,2.9,3.5,4.4,6.4,4.9
		C36.3,80.6,38.3,80.4,40.5,79.9z"/>
	<path class="st0" d="M39.5,75.8c0.3,0.3,0.5,0.5,0.7,0.7c-0.3,0.2-0.5,0.5-0.9,0.6c-0.2,0-0.4-0.3-0.7-0.5
		C38.9,76.4,39.2,76.1,39.5,75.8z"/>
	<path class="st0" d="M36.6,77.6c-0.3-0.3-0.7-0.5-0.7-0.7c0-0.4,0.4-0.6,0.8-0.5c0.3,0.1,0.5,0.3,0.7,0.5
		C37.2,77.1,36.9,77.3,36.6,77.6z"/>
	<path class="st0" d="M31.7,75.3c-0.1,0.1-0.3,0.3-0.4,0.3c-0.3,0.1-1-0.5-0.9-0.9c0-0.2,0.3-0.4,0.5-0.4
		C31.3,74.2,31.7,74.7,31.7,75.3z"/>
	<path class="st0" d="M33.7,77.2c-0.4-0.4-0.6-0.6-0.9-0.9c0.2-0.1,0.4-0.4,0.6-0.4c0.4-0.1,0.8,0.2,0.9,0.6
		C34.4,76.7,34,76.9,33.7,77.2z"/>
	<path class="st0" d="M29.8,73.1c-0.1,0.1-0.2,0.3-0.4,0.3c-0.5,0-0.7-0.4-0.7-0.8c0-0.1,0.2-0.4,0.4-0.4
		C29.5,72.2,29.7,72.5,29.8,73.1z"/>
	<path class="st0" d="M28.5,70.9c-0.3,0.2-0.5,0.4-0.5,0.4c-0.2-0.2-0.5-0.4-0.7-0.7c0,0,0.3-0.3,0.3-0.3
		C27.8,70.5,28.1,70.7,28.5,70.9z"/>
	<path class="st0" d="M25.6,69.4c0.5-0.6,0.8-0.4,1-0.1c0.1,0.1-0.1,0.3-0.1,0.5C26.2,69.6,25.9,69.5,25.6,69.4z"/>
</g>
</svg>
