<?xml version="1.0" encoding="utf-8"?>
<!-- Generator: Adobe Illustrator 22.1.0, SVG Export Plug-In . SVG Version: 6.00 Build 0)  -->
<svg version="1.1" id="Layer_1" xmlns="http://www.w3.org/2000/svg" xmlns:xlink="http://www.w3.org/1999/xlink" x="0px" y="0px"
	 viewBox="0 0 100 100" style="enable-background:new 0 0 100 100;" xml:space="preserve">
<style type="text/css">
	.st0{fill:#62C4DC;}
</style>
<g>
	<path class="st0" d="M43.3,44.9c0-0.1-0.1-0.1-0.1-0.2c-3.8-5.1-3.1-12.1,1.5-16.4c2-1.8,4.1-3.5,6.3-5.1c4.1-3,5.9-4.8,6.8-8.1
		c0.4-1.5,2.6-1.3,2.7,0.2c0.1,2.6-0.9,5.3-3,7.6c-2.5,2.7-5.2,5.2-8.1,7.4c-4,3-5.5,6.5-3.8,11.3c0.2,0.6,0.4,1.2,0.6,1.8
		C44.6,44.3,45,44,43.3,44.9z"/>
	<path class="st0" d="M30.9,75.5l-2.1,0.9C27.7,77,27.8,78.7,29,79c11.2,3.4,42.4,1.9,46.4-2.8c0.7,1.8-0.5,2.7-1.8,3.1
		c-3.6,1.1-7.3,2.4-11,3c-11.2,1.6-22.5,1.7-33.7,0.1c-1.8-0.3-3.7-0.8-5.3-1.6c-0.8-0.4-1.7-1.5-1.7-2.3c0-0.7,1.2-1.7,2-2
		c2.3-0.7,4.8-1,7.2-1.5C31,75.2,31,75.4,30.9,75.5z"/>
	<path class="st0" d="M39,52.1l-0.9,0.4c0.3,1.9,0.3,1.7,0.6,3.6c8.9,0.7,17.7,0.2,26.6-1.2c0.1,0.2,0.2,0.4,0.2,0.7
		c-3.2,1-6.4,2.4-9.7,3C48.5,60,41,60.2,33.5,58.8c-1.3-0.2-2.7-0.7-3.8-1.3c-0.7-0.4-1.5-1.4-1.5-2.1c0-0.7,0.9-1.7,1.6-1.9
		c3-0.8,6.1-1.2,9.2-1.8C39,51.8,39,52,39,52.1z"/>
	<path class="st0" d="M64.2,26.2c-2.1,1.9-4.3,3.8-6.4,5.9c-3.1,3.1-3.2,5.2-0.9,8.8c2.4,3.7,2.7,6.5,0.8,9.2
		c-0.7,1-2.3,0.6-2.5-0.6c-0.3-1.9-1.6-3.5-2.7-5.3c-3.5-5.5-2.7-9.2,1.7-12.5c3-2.3,6.4-4.1,9.6-6.1C63.9,25.8,64.1,26,64.2,26.2z"
		/>
	<path class="st0" d="M60.5,71.9c0.9,0.6,0.7,2.1-0.4,2.4c-5.3,1.7-10.8,1.8-16.3,1.2c-1.9-0.2-3.9-0.7-5.7-1.4
		c-0.9-0.3-1.7-1.3-2.1-2.2c-0.2-0.3,0.7-1.4,1.3-1.8c1-0.7,1.8-0.6,2.6,0.7c0.5,0.7,2,0.8,3.1,0.8c4.3,0,8.7-0.1,13-0.4
		C58.1,71,59.1,71,60.5,71.9z"/>
	<path class="st0" d="M35,62.5c0.7-0.6,1.7-0.4,2.1,0.4c0.6,1.2,2,1.1,3,1c5.8-0.1,11.7-0.4,17.5-0.9c0.9-0.1,1.9-0.2,2.7-0.1
		c1.6,0.1,1.6,2.4,0.1,2.7c-7.6,1.6-15.2,2.6-23,0.6c-0.2-0.1-0.5-0.1-0.7-0.2c-0.6-0.4-1.2-0.9-1.8-1.4
		C34.3,64.1,34.3,63.1,35,62.5L35,62.5z"/>
	<path class="st0" d="M35.7,85.5c7.6,0,15.2,0.1,22.8,0c7-0.1,13.8-1.1,19.8-5c0.2,0.2,0.3,0.4,0.5,0.6c-1.4,1.1-2.7,2.7-4.3,3.2
		c-4.1,1.2-8.2,2.2-12.4,2.6C53.3,87.8,44.5,87.4,35.7,85.5z"/>
	<path class="st0" d="M68.4,65.8c1.6-1.5,3.3-2.9,4.8-4.4c1.5-1.5,3-3.1,2.3-5.5c-0.7-2.4-2.9-2.8-5-3.3c-0.4-0.1-0.7-0.3-1.2-0.5
		c6-2.8,10.8-0.2,10.2,5.6c-0.1,1.4-1,3.1-2,3.9c-2.7,1.9-5.7,3.4-8.6,5C68.7,66.3,68.6,66.1,68.4,65.8z"/>
</g>
</svg>
