<?xml version="1.0" encoding="utf-8"?>
<!-- Generator: Adobe Illustrator 22.1.0, SVG Export Plug-In . SVG Version: 6.00 Build 0)  -->
<svg version="1.1" id="Layer_1" xmlns="http://www.w3.org/2000/svg" xmlns:xlink="http://www.w3.org/1999/xlink" x="0px" y="0px"
	 viewBox="0 0 100 100" style="enable-background:new 0 0 100 100;" xml:space="preserve">
<style type="text/css">
	.st0{fill:#62C4DC;}
</style>
<g>
	<g>
		<path class="st0" d="M50.3,89.2L22.2,74.6L15.8,15h67.7l-6.4,59.6L50.3,89.2z M25.7,72.2l24.5,12.7l23.3-12.7l5.8-53.5H20
			L25.7,72.2z"/>
		<polygon class="st0" points="48.4,77.4 28.4,67.6 28.4,62 43.4,69.3 43.4,27.5 48.4,27.5 		"/>
		<polygon class="st0" points="52.2,77.4 52.2,71.6 64.9,66 66.6,49.1 53.5,50.9 53.5,27.5 74,27.5 72.7,32.5 58.5,32.5 58.5,45.1 
			72.2,43.2 69.6,69.3 		"/>
	</g>
</g>
</svg>
