<?xml version="1.0" encoding="utf-8"?>
<!-- Generator: Adobe Illustrator 22.1.0, SVG Export Plug-In . SVG Version: 6.00 Build 0)  -->
<svg version="1.1" id="Layer_1" xmlns="http://www.w3.org/2000/svg" xmlns:xlink="http://www.w3.org/1999/xlink" x="0px" y="0px"
	 viewBox="0 0 100 100" style="enable-background:new 0 0 100 100;" xml:space="preserve">
<style type="text/css">
	.st0{fill:#62C4DC;}
</style>
<g>
	<path class="st0" d="M20.1,28.5c2.2-4.5,5.3-7.3,10.1-7.3c13.5-0.1,26.9-0.1,40.4,0c5.3,0,10.2,4.5,10.5,9.6
		c0.2,4.6,0.1,9.2,0.1,14.3c-1.4-1.7-2.5-3-3.6-4.4c-0.9-1.2-1.9-1.8-3.6-1.4c-2.6,0.6-5.2,0.9-7.8,1.3c-0.8,0.1-1.6,0.5-2.7,0.8
		c2.6,3.7,4.9,7,7.4,10.6c-1.7,0.5-3.3,0.9-4.8,1.3c-4.7,1.1-9.5,2.2-14.2,3.4c-1.4,0.4-2.1,0-2.7-1.1c-5.1-8.6-10.2-17.1-15.3-25.7
		c-1-1.7-2.1-2.3-4-2C26.6,28.1,23.5,28.2,20.1,28.5z"/>
	<path class="st0" d="M19.9,40.3c3.1,6.7,6.2,13.4,9.3,20c0.3,0.7,0.7,1.5,1.1,2.2c0.8,1.6,2.1,2.2,3.9,1.7
		c4.4-1.2,8.9-2.3,13.4-3.4c0.3-0.1,0.6-0.1,1-0.2c2.2,3.9,4.4,7.8,6.6,11.7c2,3.6,2.3,3.7,6.1,2.4c6-2.1,12-4.3,18-6.4
		c0.5-0.2,1.1-0.3,1.6-0.5C83,77,76.2,82.8,70.1,82.8c-13.1-0.1-26.3,0-39.5-0.1c-5.8,0-10.9-4.5-11-10.1
		c-0.2-10.7-0.1-21.5-0.1-32.2C19.7,40.3,19.8,40.3,19.9,40.3z"/>
	<path class="st0" d="M46.9,57.7c-4.6,1.1-8.9,2.1-13.4,3.2c-4.7-9.9-9.7-19.7-14.4-30c4.1-0.4,7.6-0.7,11.1-0.9
		c0.5,0,1.2,0.8,1.5,1.4c4.3,7.3,8.6,14.7,12.8,22.1C45.3,54.9,46,56.2,46.9,57.7z"/>
	<path class="st0" d="M80.1,64.6c-4,1.4-7.7,2.7-11.5,4c-2.8,1-5.6,2-8.4,2.8c-0.6,0.2-1.8,0-2-0.5c-2.2-3.6-4.3-7.3-6.5-11.1
		c2.1-0.6,4-1.1,5.9-1.6c4.3-1.1,8.7-2.1,13-3.4c1.7-0.5,2.6-0.1,3.5,1.3C75.8,59,77.9,61.6,80.1,64.6z"/>
	<path class="st0" d="M73.3,51.4c-2.1-2.9-4.1-5.6-6.3-8.6c2.6-0.5,5.1-1,7.6-1.4c0.5-0.1,1.3,0.3,1.7,0.8c1.5,1.7,2.9,3.5,4.3,5.3
		c1,1.3,0.8,1.9-0.8,2.4C77.7,50.4,75.6,50.8,73.3,51.4z"/>
	<path class="st0" d="M75.2,53.9c2-0.5,3.8-1,5.8-1.5c0,3,0,6,0,9.3C79,58.9,77.2,56.5,75.2,53.9z"/>
</g>
</svg>
