<?xml version="1.0" encoding="utf-8"?>
<!-- Generator: Adobe Illustrator 22.1.0, SVG Export Plug-In . SVG Version: 6.00 Build 0)  -->
<svg version="1.1" id="Layer_1" xmlns="http://www.w3.org/2000/svg" xmlns:xlink="http://www.w3.org/1999/xlink" x="0px" y="0px"
	 viewBox="0 0 100 100" style="enable-background:new 0 0 100 100;" xml:space="preserve">
<style type="text/css">
	.st0{fill:#F7B5C2;}
</style>
<g>
	<path class="st0" d="M49.7,24.5c0.9-0.8,1.9-1.7,2.9-2.5c3-2.4,6.1-4.5,9.7-5.7c2.1-0.7,4.2-1,6.3-0.4c2.5,0.7,4,2.5,5,4.8
		c0.8,2,1.1,4,1.2,6.2c0.2,3.8-0.3,7.6-1.2,11.4c0,0.1,0,0.1,0,0.2c0.4,0.1,0.8,0.3,1.2,0.4c3.7,1.2,7.3,2.8,10.5,5
		c1.7,1.2,3.2,2.5,4.3,4.3c1.8,2.8,1.8,5.6,0,8.4c-1.4,2.1-3.3,3.7-5.5,5c-3.1,2-6.6,3.4-10.1,4.5c-0.1,0-0.2,0.1-0.4,0.1
		c0.2,1,0.4,2.1,0.6,3.1c0.6,3.8,0.9,7.7,0.3,11.6c-0.3,1.5-0.7,3-1.5,4.4c-1.6,2.8-4.4,4.2-7.6,3.8c-3.4-0.4-6.3-1.8-9.1-3.7
		c-2-1.4-3.9-3-5.9-4.5c-0.3-0.2-0.5-0.4-0.7-0.6c-1.4,1.2-2.8,2.4-4.2,3.4c-2.7,2-5.5,3.8-8.7,4.9c-1.8,0.6-3.6,0.9-5.5,0.6
		c-2.9-0.5-4.6-2.4-5.7-5c-0.8-2-1.1-4.2-1.2-6.3c-0.1-3.8,0.4-7.4,1.2-11.1c0-0.1,0-0.2,0.1-0.3c-1.2-0.4-2.4-0.8-3.5-1.3
		c-3.6-1.4-7.1-3-10-5.6c-0.8-0.7-1.6-1.5-2.2-2.4c-2.2-3-2.2-6.2,0-9.2c1.5-2.1,3.6-3.7,5.8-5c2.8-1.7,5.9-3,9-4
		c0.8-0.3,0.8-0.2,0.6-1.1c-0.7-3.3-1.1-6.5-1.1-9.9c0-2.3,0.3-4.5,1.1-6.6c1.6-4.4,5-6.3,9.6-5.3c3.4,0.7,6.3,2.3,9.1,4.3
		C46.1,21.5,47.9,23,49.7,24.5z M50.1,38.8c-2.3,0.1-5,0.2-7.7,0.4c-0.2,0-0.5,0.2-0.6,0.4c-2.7,4-5.1,8.1-7.1,12.5
		c-0.1,0.2-0.1,0.5,0,0.8c2,4.3,4.4,8.5,7.2,12.4c0.1,0.2,0.4,0.4,0.6,0.4c4.8,0.4,9.6,0.4,14.4,0c0.2,0,0.5-0.2,0.7-0.4
		c2.7-4,5.1-8.2,7.2-12.5c0.1-0.2,0.1-0.4,0-0.6c-2.1-4.4-4.5-8.6-7.3-12.5c-0.1-0.2-0.4-0.3-0.6-0.3C54.8,39,52.7,38.9,50.1,38.8z
		 M29.4,67.3C29.4,67.3,29.3,67.3,29.4,67.3c-0.9,3.8-1.4,7.5-1.1,11.2c0.1,1.6,0.4,3.2,1.2,4.7c0.7,1.5,1.9,2.2,3.6,2.2
		c1.7-0.1,3.2-0.6,4.7-1.3c3.2-1.5,5.9-3.6,8.5-5.9c0.3-0.3,0.6-0.5,0.7-0.7c-2.3-2.8-4.5-5.6-6.7-8.3c-0.1-0.2-0.4-0.3-0.7-0.3
		c-1.3-0.2-2.6-0.3-3.8-0.5C33.6,68.1,31.5,67.7,29.4,67.3z M52.3,27.1c0.1,0.1,0.1,0.2,0.2,0.3c2.4,2.5,4.6,5.2,6.7,8
		c0.1,0.1,0.4,0.3,0.5,0.3c2.5,0.4,5.1,0.8,7.6,1.2c0.9,0.1,1.8,0.4,2.7,0.6C71,33.3,71.5,29.2,71,25c-0.2-1.3-0.5-2.6-1.1-3.7
		c-0.5-1-1.3-1.7-2.4-1.9c-1.1-0.2-2.2-0.1-3.3,0.3c-2.9,0.8-5.4,2.4-7.8,4.2C55,24.9,53.7,26,52.3,27.1z M72.8,62.6
		c3.7-1.2,7.3-2.6,10.5-4.9c1.2-0.9,2.3-1.8,3.2-3.1c1.1-1.6,1.1-3,0-4.5c-0.6-0.8-1.2-1.5-2-2.1c-2.7-2.3-5.9-3.8-9.3-5
		c-0.8-0.3-1.6-0.6-2.5-0.8c-0.1,0.1-0.1,0.2-0.1,0.3c-1,3.3-2.2,6.5-3.5,9.7c-0.1,0.2-0.1,0.5,0,0.7c0.5,1.4,1.1,2.7,1.7,4.1
		C71.5,58.7,72.1,60.6,72.8,62.6z M26.6,62.6c0.1-0.1,0.1-0.2,0.1-0.3c1-3.3,2.1-6.5,3.5-9.6c0.1-0.2,0-0.5-0.1-0.8
		c-1-2.7-2.1-5.5-3.1-8.2c-0.2-0.5-0.3-1-0.5-1.6c-0.1,0-0.2,0-0.3,0c-3.2,1-6.4,2.3-9.3,4.1c-1.6,1-3.1,2.2-4.2,3.7
		c-1.1,1.6-1.1,3,0,4.5c0.6,0.8,1.3,1.6,2.1,2.2C18.4,59.6,22.4,61.2,26.6,62.6z M29.3,37.4c0.2,0,0.3,0,0.4,0
		c3.3-0.8,6.6-1.4,9.9-1.7c0.4,0,0.6-0.2,0.8-0.5c2.1-2.5,4.2-5,6.2-7.6c0.1-0.1,0.3-0.3,0.4-0.5c-2.2-2-4.5-3.9-7-5.4
		c-2-1.2-4-2.2-6.3-2.4c-2.3-0.3-3.4,0.4-4.4,2.3c-0.6,1.3-0.9,2.7-1,4.1c-0.3,2.5-0.1,5.1,0.2,7.6C28.7,34.7,29,36.1,29.3,37.4z
		 M52.4,77.5c2.3,2.1,4.7,4,7.4,5.6c1.8,1,3.6,1.8,5.6,2.2c2.5,0.4,3.9-0.4,4.9-2.8c0.6-1.5,0.8-3.2,0.9-4.8
		c0.1-2.6-0.1-5.3-0.6-7.9c-0.2-0.9-0.4-1.7-0.5-2.6c-0.2,0-0.2,0-0.3,0c-3.2,0.6-6.5,1.2-9.7,1.7c-0.5,0.1-0.8,0.2-1.1,0.6
		c-1.2,1.5-2.4,3.1-3.6,4.6C54.4,75.3,53.4,76.3,52.4,77.5z M49.6,29.7c-1.6,1.9-3.1,3.6-4.7,5.5c3.2,0,6.2,0,9.4,0
		C52.8,33.3,51.3,31.6,49.6,29.7z M45,69.5c1.6,1.9,3.1,3.6,4.8,5.5c1.6-1.9,3.1-3.6,4.7-5.5C51.2,69.5,48.2,69.5,45,69.5z M30.1,41
		c0.8,2.3,1.6,4.5,2.4,6.8c1.6-2.8,3.1-5.4,4.7-8.1C34.8,40.1,32.6,40.6,30.1,41z M66.9,56.8c-1.6,2.7-3.1,5.4-4.7,8.1
		c2.4-0.5,4.6-0.9,7-1.4C68.4,61.3,67.7,59.1,66.9,56.8z M66.9,47.7c0.8-2.3,1.5-4.4,2.3-6.7c-2.4-0.5-4.6-0.9-7-1.3
		C63.8,42.4,65.3,45,66.9,47.7z M30.2,63.6c2.4,0.5,4.6,0.9,7,1.3c-1.6-2.7-3.1-5.3-4.7-8C31.7,59.2,31,61.3,30.2,63.6z"/>
	<path class="st0" d="M42,52.3c0-4.2,3.4-7.7,7.7-7.7c4.2,0,7.7,3.4,7.7,7.7c0,4.3-3.4,7.7-7.7,7.7C45.4,60,42,56.6,42,52.3z"/>
</g>
</svg>
