<svg xmlns="http://www.w3.org/2000/svg" viewBox="0 0 650.07 689"><g data-name="Layer 2"><g data-name="Layer 1"><path d="M262.4 635.76L325 477.38 146 24.61A38.94 38.94 0 0 0 109.78 0H38.93A38.93 38.93 0 0 0 0 38.93v611.14A38.93 38.93 0 0 0 38.93 689h58.39a38.93 38.93 0 0 0 38.92-38.93V344.5l124.54 314.9a38.53 38.53 0 0 1 1.62-23.64z" fill="#1cbdab"/><path d="M298.06 689c-1 0-2.07-.11-3.08-.2 1.02.08 2.02.14 3.08.2zm53.41 0h.54-.89zm3.63-.23a38.89 38.89 0 0 0 34.19-29.37l-2 5a38.9 38.9 0 0 1-32.19 24.37zm0 0c-1 .09-2 .18-3.09.2 1.04-.03 2.07-.09 3.09-.2zm-92.35-24.38l-2-5A38.92 38.92 0 0 0 295 688.77a38.91 38.91 0 0 1-32.25-24.38z"/><path d="M611.15 0H540.3a38.92 38.92 0 0 0-36.2 24.61L325 477.38l62.63 158.38a38.46 38.46 0 0 1 1.62 23.64l124.58-314.9v305.57A38.93 38.93 0 0 0 552.76 689h58.39a38.92 38.92 0 0 0 38.92-38.93V38.93A38.92 38.92 0 0 0 611.15 0z" fill="#d81d41"/><path d="M298.6 689h.4-.89z"/><path d="M387.67 635.76L325 477.38l-62.6 158.38a38.53 38.53 0 0 0-1.62 23.64l2 5A38.91 38.91 0 0 0 295 688.77c1 .09 2 .18 3.08.2h53.95c1.05 0 2.07-.11 3.09-.2a38.9 38.9 0 0 0 32.22-24.38l2-5a38.46 38.46 0 0 0-1.67-23.63z" fill="#632857"/></g></g></svg>